<svg xmlns="http://www.w3.org/2000/svg" style="display: none;">
  <!-- Güneş İkonu -->
  <symbol id="sun-icon" viewBox="0 0 24 24">
    <circle cx="12" cy="12" r="5" fill="currentColor"/>
    <path d="M12 1v2M12 21v2M4.22 4.22l1.42 1.42M18.36 18.36l1.42 1.42M1 12h2M21 12h2M4.22 19.78l1.42-1.42M18.36 5.64l1.42-1.42" stroke="currentColor" stroke-width="2" stroke-linecap="round"/>
  </symbol>
  
  <!-- Bulut İkonu -->
  <symbol id="cloud-icon" viewBox="0 0 24 24">
    <path d="M18 10h-1.26A8 8 0 1 0 9 20h9a5 5 0 0 0 0-10z" fill="currentColor"/>
  </symbol>
  
  <!-- Yağmur Damlası İkonu -->
  <symbol id="raindrop-icon" viewBox="0 0 24 24">
    <path d="M12 2.69l5.66 5.66a8 8 0 1 1-11.31 0z" fill="currentColor"/>
  </symbol>
  
  <!-- Rüzgar İkonu -->
  <symbol id="wind-icon" viewBox="0 0 24 24">
    <path d="M9.59 4.59A2 2 0 1 1 11 8H2m10.59 11.41A2 2 0 1 0 14 16H2m15.73-8.27A2.5 2.5 0 1 1 19.5 12H2" stroke="currentColor" stroke-width="2" stroke-linecap="round" stroke-linejoin="round" fill="none"/>
  </symbol>
  
  <!-- Kar Tanesi İkonu -->
  <symbol id="snowflake-icon" viewBox="0 0 24 24">
    <path d="M12 2l3.09 6.26L22 9.27l-5 4.87 1.18 6.88L12 17.77l-6.18 3.25L7 14.14 2 9.27l6.91-1.01L12 2z" fill="currentColor"/>
  </symbol>
</svg> 